M48
;Layer_Color=9474304
;FILE_FORMAT=2:5
INCH,TZ
;TYPE=PLATED
T1F00S00C0.00787
T2F00S00C0.01181
T3F00S00C0.01968
T4F00S00C0.03543
T5F00S00C0.03937
%
T01
X433858Y200591
Y204921
X367717Y172835
X363386
Y168504
X367717
Y164173
X363386
Y159843
Y155512
X367717
Y159843
X359055
Y155512
X354724
Y159843
X350394
Y155512
Y164173
X354724
X359055
Y168504
X354724
X350394
Y172835
X354724
X359055
T02
X205790Y86918
X221538
X229412
X237286
X241223Y94792
X233349
X225475
X229412Y102666
X237286
X241223Y110540
X233349
X237286Y118414
X241223Y126288
X237286Y134162
X205790Y149910
Y102666
X245160
X249097Y110540
X253034Y118414
X245160
Y134162
X249097Y142036
X245160Y86918
X323900
X331774
X339648
X347522
X355396
X363270
X371144
X379018
X386893
X394766
Y102666
Y118414
Y134162
X386893
X375081Y126288
X379018Y102666
X371144
X363270
X355396
X347522
X339648
X331774
X323900
X327837Y94792
X335711
X343585
X351459
X359333
X367207
X375081
X347522Y118414
X328133Y125993
X319963Y94792
X398704
X402640Y86918
X410514
X418389
X426263
X434137
X430200Y94792
X422326
X414452
X418389Y102666
X426263
X434137
X430200Y110540
X422326
X414452
X410514Y102666
X426263Y118414
X434137
X445948Y110540
X461696
X465633Y118414
X457759
X461696Y126288
X465633Y134162
X457759
X461696Y142036
X465633Y149910
X442011Y134162
X426263Y149910
X410514Y134162
X402640
X398704Y142036
Y126288
X457759Y102666
X465633
X461696Y94792
X465633Y86918
X457759
X449885
X453822Y157784
X449885Y165658
X465633
Y181406
X461696Y205028
X453822
Y220776
X461696
X465633Y228650
X457759
X449885
X442011
X434137
X426263
X418389
X422326Y220776
X430200
X438074
X445948
X434137Y212902
X426263
X414452Y220776
Y189280
X422326
X430200
X438074
X445948
X434137Y197154
X410514Y181406
X402640Y165658
X359333Y220776
X363270Y228650
X355396
X347522
X339648
X343585Y220776
X347522Y212902
X339648
X343585Y205028
X335711
X327837
X319963
X312089
X304215
X296341
X288467
X280593
X272719
X264845
X256971
X249097
X245160Y197154
X253034
X260908
X268782
X276656
Y212902
X284530
X292404
X300278
X296341Y220776
X288467
X280593
X272719
X264845
X268782Y228650
X276656
X284530
X292404
X300278
X260908
Y212902
X268782
Y165658
X276656
X284530
X292404
X300278
X288467Y173532
X280593
X260908Y165658
X237286Y197154
X229412
X221538
X213664
X205790
X209727Y205028
X217601
X225475
X233349
X241223
X221538Y212902
X213664
X205790
X209727Y220776
X217601
X221538Y228650
X217601Y189280
X209727
T03
X261811Y93701
X272047Y94095
X279921Y93701
X284016Y102362
X268898Y104724
X294094Y94488
X312598Y90945
X309055Y118504
X311988Y130532
X309449Y139764
X301575Y137402
X292126Y126772
X274410Y137795
X256693Y146850
X251575Y130709
X331102Y136614
X339764Y130709
X349213Y126378
X355512Y117717
X340551Y116929
X329528Y109449
X332563Y150995
X326772Y152756
X359941Y135827
X368898Y143701
X375654Y144819
X418504Y149213
X434252Y140157
X433398Y124736
X421747Y157383
X409449Y163779
X429134Y181496
X420079Y195870
X418504Y207681
X448819Y212598
X397638Y210236
X367704Y192702
X368110Y187008
X377067Y179528
X344488Y180709
X328740Y172835
X322441Y157480
X337000Y159358
X339764Y201575
X350000Y201776
X352362Y221260
X298031Y172441
X286221Y161417
X274410Y173228
X242913Y155512
X203543Y184646
T04
X211417Y86535
Y96535
Y106535
Y116535
Y136535
Y146535
X440394Y93701
X450394
X406299Y225197
X396299
X386299
X376299
X211417Y166535
Y156535
T05
X387205Y97638
Y123228
X404921
Y97638
M30
