G04*
G04 #@! TF.GenerationSoftware,Altium Limited,Altium Designer,22.2.1 (43)*
G04*
G04 Layer_Color=65535*
%FSLAX25Y25*%
%MOIN*%
G70*
G04*
G04 #@! TF.SameCoordinates,3A658960-9040-4E96-AE8A-DEED508C0D5D*
G04*
G04*
G04 #@! TF.FilePolarity,Positive*
G04*
G01*
G75*
%ADD10C,0.00984*%
%ADD11C,0.00669*%
%ADD12C,0.00700*%
%ADD13C,0.00787*%
%ADD14C,0.01000*%
%ADD15C,0.00866*%
%ADD16C,0.01181*%
%ADD17R,0.01968X0.06299*%
D10*
X457717Y175354D02*
X456978Y175780D01*
Y174928D01*
X457717Y175354D01*
X405413Y128839D02*
X404675Y129265D01*
Y128412D01*
X405413Y128839D01*
X342421Y178150D02*
X341683Y178576D01*
Y177723D01*
X342421Y178150D01*
X321358Y173677D02*
X320620Y174103D01*
Y173251D01*
X321358Y173677D01*
X318602Y169390D02*
X317864Y169816D01*
Y168964D01*
X318602Y169390D01*
X436108Y145866D02*
X435370Y146292D01*
Y145440D01*
X436108Y145866D01*
X452598Y98583D02*
X451860Y99009D01*
Y98156D01*
X452598Y98583D01*
D11*
X459449Y202362D02*
Y209449D01*
X467323Y202362D02*
Y209449D01*
X450394Y202362D02*
Y209449D01*
X458268Y202362D02*
Y209449D01*
X408268Y199606D02*
Y206693D01*
X400394Y199606D02*
Y206693D01*
X417323Y199606D02*
Y206693D01*
X409449Y199606D02*
Y206693D01*
X418898Y170472D02*
Y177559D01*
X426772Y170472D02*
Y177559D01*
X413779Y133071D02*
Y140157D01*
X405905Y133071D02*
Y140157D01*
X441732Y116535D02*
X448819D01*
X441732Y124409D02*
X448819D01*
X441732Y107874D02*
X448819D01*
X441732Y115748D02*
X448819D01*
D12*
X448488Y197324D02*
Y200724D01*
X444488Y197324D02*
X448488D01*
X440488D02*
X444488D01*
X440488D02*
Y200724D01*
Y208724D02*
Y212124D01*
X444488D01*
X448488D01*
Y208724D02*
Y212124D01*
X418835Y207150D02*
Y210550D01*
X422835D01*
X426835D01*
Y207150D02*
Y210550D01*
Y195750D02*
Y199150D01*
X422835Y195750D02*
X426835D01*
X418835D02*
X422835D01*
X418835D02*
Y199150D01*
X436283Y165828D02*
Y169228D01*
X432283Y165828D02*
X436283D01*
X428284D02*
X432283D01*
X428284D02*
Y169228D01*
Y177228D02*
Y180628D01*
X432283D01*
X436283D01*
Y177228D02*
Y180628D01*
X413842Y164647D02*
Y168047D01*
X409842Y164647D02*
X413842D01*
X405842D02*
X409842D01*
X405842D02*
Y168047D01*
Y176047D02*
Y179447D01*
X409842D01*
X413842D01*
Y176047D02*
Y179447D01*
Y148112D02*
Y151512D01*
X409842Y148112D02*
X413842D01*
X405842D02*
X409842D01*
X405842D02*
Y151512D01*
Y159512D02*
Y162912D01*
X409842D01*
X413842D01*
Y159512D02*
Y162912D01*
X369354Y130772D02*
X372754D01*
Y126772D02*
Y130772D01*
Y122772D02*
Y126772D01*
X369354Y122772D02*
X372754D01*
X357954D02*
X361354D01*
X357954D02*
Y126772D01*
Y130772D01*
X361354D01*
X369354Y121323D02*
X372754D01*
Y117323D02*
Y121323D01*
Y113323D02*
Y117323D01*
X369354Y113323D02*
X372754D01*
X357954D02*
X361354D01*
X357954D02*
Y117323D01*
Y121323D01*
X361354D01*
X349293Y210173D02*
X352693D01*
X349293D02*
Y214173D01*
Y218173D01*
X352693D01*
X360693D02*
X364093D01*
Y214173D02*
Y218173D01*
Y210173D02*
Y214173D01*
X360693Y210173D02*
X364093D01*
X352819Y184726D02*
Y188126D01*
X348819Y184726D02*
X352819D01*
X344819D02*
X348819D01*
X344819D02*
Y188126D01*
Y196126D02*
Y199526D01*
X348819D01*
X352819D01*
Y196126D02*
Y199526D01*
X335764Y196063D02*
Y199463D01*
X339764D01*
X343764D01*
Y196063D02*
Y199463D01*
Y184663D02*
Y188063D01*
X339764Y184663D02*
X343764D01*
X335764D02*
X339764D01*
X335764D02*
Y188063D01*
X326709Y196126D02*
Y199526D01*
X330709D01*
X334709D01*
Y196126D02*
Y199526D01*
Y184726D02*
Y188126D01*
X330709Y184726D02*
X334709D01*
X326709D02*
X330709D01*
X326709D02*
Y188126D01*
X300080Y184189D02*
X303480D01*
X300080D02*
Y188189D01*
Y192189D01*
X303480D01*
X311480D02*
X314880D01*
Y188189D02*
Y192189D01*
Y184189D02*
Y188189D01*
X311480Y184189D02*
X314880D01*
X300080Y175528D02*
X303480D01*
X300080D02*
Y179528D01*
Y183528D01*
X303480D01*
X311480D02*
X314880D01*
Y179528D02*
Y183528D01*
Y175528D02*
Y179528D01*
X311480Y175528D02*
X314880D01*
X302049Y166472D02*
X305449D01*
X302049D02*
Y170472D01*
Y174472D01*
X305449D01*
X313449D02*
X316849D01*
Y170472D02*
Y174472D01*
Y166472D02*
Y170472D01*
X313449Y166472D02*
X316849D01*
X223702Y140094D02*
X227102D01*
X223702D02*
Y144095D01*
Y148094D01*
X227102D01*
X235102D02*
X238502D01*
Y144095D02*
Y148094D01*
Y140094D02*
Y144095D01*
X235102Y140094D02*
X238502D01*
X223702Y149150D02*
X227102D01*
X223702D02*
Y153150D01*
Y157150D01*
X227102D01*
X235102D02*
X238502D01*
Y153150D02*
Y157150D01*
Y149150D02*
Y153150D01*
X235102Y149150D02*
X238502D01*
X207150Y118584D02*
Y121984D01*
X203150Y118584D02*
X207150D01*
X199150D02*
X203150D01*
X199150D02*
Y121984D01*
Y129984D02*
Y133384D01*
X203150D01*
X207150D01*
Y129984D02*
Y133384D01*
X215024Y173246D02*
Y176646D01*
X211024Y173246D02*
X215024D01*
X207024D02*
X211024D01*
X207024D02*
Y176646D01*
Y184646D02*
Y188046D01*
X211024D01*
X215024D01*
Y184646D02*
Y188046D01*
X223639Y158598D02*
X227039D01*
X223639D02*
Y162598D01*
Y166598D01*
X227039D01*
X235039D02*
X238439D01*
Y162598D02*
Y166598D01*
Y158598D02*
Y162598D01*
X235039Y158598D02*
X238439D01*
X223702Y168441D02*
X227102D01*
X223702D02*
Y172441D01*
Y176441D01*
X227102D01*
X235102D02*
X238502D01*
Y172441D02*
Y176441D01*
Y168441D02*
Y172441D01*
X235102Y168441D02*
X238502D01*
X360693Y209118D02*
X364093D01*
Y205118D02*
Y209118D01*
Y201118D02*
Y205118D01*
X360693Y201118D02*
X364093D01*
X349293D02*
X352693D01*
X349293D02*
Y205118D01*
Y209118D01*
X352693D01*
X313386Y165811D02*
X316786D01*
Y161811D02*
Y165811D01*
Y157811D02*
Y161811D01*
X313386Y157811D02*
X316786D01*
X301986D02*
X305386D01*
X301986D02*
Y161811D01*
Y165811D01*
X305386D01*
X438408Y149376D02*
Y171423D01*
X440362Y173378D01*
X462409D01*
Y151330D02*
Y173378D01*
X460455Y149376D02*
X462409Y151330D01*
X438408Y149376D02*
X460455D01*
X436283Y145356D02*
Y148756D01*
X432283Y145356D02*
X436283D01*
X428284D02*
X432283D01*
X428284D02*
Y148756D01*
Y156756D02*
Y160156D01*
X432283D01*
X436283D01*
Y156756D02*
Y160156D01*
X415291Y140220D02*
Y143621D01*
X419291D01*
X423291D01*
Y140220D02*
Y143621D01*
Y128821D02*
Y132220D01*
X419291Y128821D02*
X423291D01*
X415291D02*
X419291D01*
X415291D02*
Y132220D01*
X432740Y128821D02*
Y132220D01*
X428740Y128821D02*
X432740D01*
X424740D02*
X428740D01*
X424740D02*
Y132220D01*
Y140220D02*
Y143621D01*
X428740D01*
X432740D01*
Y140220D02*
Y143621D01*
X448819Y133528D02*
X452219D01*
Y129527D02*
Y133528D01*
Y125528D02*
Y129527D01*
X448819Y125528D02*
X452219D01*
X437419D02*
X440819D01*
X437419D02*
Y129527D01*
Y133528D01*
X440819D01*
D13*
X453858Y176772D02*
Y183071D01*
X447717Y176772D02*
X453858D01*
X447717Y183071D02*
X453858D01*
X447717Y176772D02*
Y183071D01*
X391732Y98228D02*
X400394D01*
X408268Y102165D02*
Y118701D01*
X391732Y122638D02*
X400394D01*
X383858Y102165D02*
Y118701D01*
X344488Y149606D02*
X346161D01*
X344488D02*
Y151279D01*
X371949Y149606D02*
X373622D01*
Y151279D01*
Y177067D02*
Y178740D01*
X371949D02*
X373622D01*
X344488D02*
X346161D01*
X344488Y177067D02*
Y178740D01*
X314567Y193701D02*
X325591D01*
X314567Y199213D02*
X325591D01*
X316366Y190200D02*
X318866D01*
X322866Y190208D02*
X325366D01*
X322366Y175037D02*
X325366D01*
X316366Y175100D02*
X318366D01*
X325366Y175037D02*
Y190208D01*
X316366Y175100D02*
Y190200D01*
X330197Y165642D02*
Y166626D01*
X320197Y165642D02*
Y166626D01*
X429724Y198031D02*
X430709D01*
X437008D02*
X437992D01*
X437008Y207480D02*
X437992D01*
X429724D02*
X433071D01*
X440352Y148819D02*
X451376D01*
X440352Y135433D02*
X451376D01*
X448740Y100000D02*
Y106299D01*
X442598Y100000D02*
X448740D01*
X442598Y106299D02*
X448740D01*
X442598Y100000D02*
Y106299D01*
X411299Y220197D02*
Y230197D01*
X371299Y220197D02*
X411299D01*
X371299Y230197D02*
X411299D01*
X371299Y220197D02*
Y230197D01*
D14*
X318209Y130118D02*
X341043D01*
Y90748D02*
Y130118D01*
X318209Y90748D02*
X341043D01*
X222933D02*
X245768D01*
X222933D02*
Y130118D01*
X245768D01*
D15*
X385552Y211889D02*
X384962Y211299D01*
Y210118D01*
X385552Y209528D01*
X387914D01*
X388504Y210118D01*
Y211299D01*
X387914Y211889D01*
X384962Y213070D02*
X388504D01*
Y215431D01*
X384962Y216612D02*
X388504D01*
X387323D01*
X384962Y218973D01*
X386733Y217202D01*
X388504Y218973D01*
X392048Y210315D02*
X395590D01*
Y212086D01*
X395000Y212676D01*
X392639D01*
X392048Y212086D01*
Y210315D01*
Y213857D02*
Y215038D01*
Y214447D01*
X395590D01*
Y213857D01*
Y215038D01*
X392048Y218580D02*
Y217399D01*
X392639Y216809D01*
X395000D01*
X395590Y217399D01*
Y218580D01*
X395000Y219170D01*
X392639D01*
X392048Y218580D01*
X405237Y218188D02*
X404647Y217598D01*
Y216417D01*
X405237Y215827D01*
X407599D01*
X408189Y216417D01*
Y217598D01*
X407599Y218188D01*
X406418D01*
Y217007D01*
X374529Y206772D02*
X373938Y207362D01*
Y208543D01*
X374529Y209133D01*
X375119D01*
X375709Y208543D01*
Y207952D01*
Y208543D01*
X376300Y209133D01*
X376890D01*
X377480Y208543D01*
Y207362D01*
X376890Y206772D01*
X377480Y210314D02*
X376890D01*
Y210904D01*
X377480D01*
Y210314D01*
X374529Y213266D02*
X373938Y213856D01*
Y215037D01*
X374529Y215627D01*
X375119D01*
X375709Y215037D01*
Y214446D01*
Y215037D01*
X376300Y215627D01*
X376890D01*
X377480Y215037D01*
Y213856D01*
X376890Y213266D01*
X373938Y216808D02*
X376300D01*
X377480Y217988D01*
X376300Y219169D01*
X373938D01*
X458625Y233059D02*
X460986D01*
X459805D01*
Y229516D01*
X463938Y233059D02*
X462757D01*
X462167Y232468D01*
Y230107D01*
X462757Y229516D01*
X463938D01*
X464528Y230107D01*
Y232468D01*
X463938Y233059D01*
X465709Y229516D02*
Y233059D01*
X467480D01*
X468071Y232468D01*
Y231288D01*
X467480Y230697D01*
X465709D01*
X363977Y223426D02*
Y226968D01*
X365748D01*
X366339Y226378D01*
Y225197D01*
X365748Y224606D01*
X363977D01*
X367519Y226378D02*
X368110Y226968D01*
X369291D01*
X369881Y226378D01*
Y225787D01*
X369291Y225197D01*
X368700D01*
X369291D01*
X369881Y224606D01*
Y224016D01*
X369291Y223426D01*
X368110D01*
X367519Y224016D01*
X332481Y162796D02*
X333071D01*
X334252Y163977D01*
X333071Y165158D01*
X332481D01*
X334252Y163977D02*
X336023D01*
Y168700D02*
Y166338D01*
X333662Y168700D01*
X333071D01*
X332481Y168110D01*
Y166929D01*
X333071Y166338D01*
X327363Y177954D02*
X327953D01*
X329134Y179134D01*
X327953Y180315D01*
X327363D01*
X329134Y179134D02*
X330905D01*
Y181496D02*
Y182676D01*
Y182086D01*
X327363D01*
X327953Y181496D01*
X456497Y144685D02*
Y141733D01*
X457087Y141142D01*
X458268D01*
X458858Y141733D01*
Y144685D01*
X461810Y141142D02*
Y144685D01*
X460039Y142913D01*
X462401D01*
X430513Y212598D02*
Y209646D01*
X431103Y209056D01*
X432284D01*
X432874Y209646D01*
Y212598D01*
X434055Y212007D02*
X434645Y212598D01*
X435826D01*
X436416Y212007D01*
Y211417D01*
X435826Y210827D01*
X435236D01*
X435826D01*
X436416Y210236D01*
Y209646D01*
X435826Y209056D01*
X434645D01*
X434055Y209646D01*
X355316Y185236D02*
Y182284D01*
X355906Y181693D01*
X357087D01*
X357677Y182284D01*
Y185236D01*
X361220Y181693D02*
X358858D01*
X361220Y184055D01*
Y184645D01*
X360629Y185236D01*
X359448D01*
X358858Y184645D01*
X394292Y94881D02*
X393702Y95472D01*
X392521D01*
X391931Y94881D01*
Y94291D01*
X392521Y93701D01*
X393702D01*
X394292Y93110D01*
Y92520D01*
X393702Y91930D01*
X392521D01*
X391931Y92520D01*
X395473Y95472D02*
Y91930D01*
X396653Y93110D01*
X397834Y91930D01*
Y95472D01*
X399015Y91930D02*
X400196D01*
X399605D01*
Y95472D01*
X399015Y94881D01*
X430905Y118407D02*
X427363D01*
Y120178D01*
X427953Y120768D01*
X429134D01*
X429724Y120178D01*
Y118407D01*
Y119588D02*
X430905Y120768D01*
Y121949D02*
Y123130D01*
Y122539D01*
X427363D01*
X427953Y121949D01*
X430905Y126672D02*
X427363D01*
X429134Y124901D01*
Y127262D01*
X421850Y118013D02*
X418308D01*
Y119784D01*
X418898Y120375D01*
X420079D01*
X420669Y119784D01*
Y118013D01*
Y119194D02*
X421850Y120375D01*
Y121555D02*
Y122736D01*
Y122146D01*
X418308D01*
X418898Y121555D01*
Y124507D02*
X418308Y125098D01*
Y126278D01*
X418898Y126869D01*
X419488D01*
X420079Y126278D01*
Y125688D01*
Y126278D01*
X420669Y126869D01*
X421259D01*
X421850Y126278D01*
Y125098D01*
X421259Y124507D01*
X347935Y120670D02*
Y124212D01*
X349706D01*
X350296Y123622D01*
Y122441D01*
X349706Y121851D01*
X347935D01*
X349115D02*
X350296Y120670D01*
X351477D02*
X352657D01*
X352067D01*
Y124212D01*
X351477Y123622D01*
X356790Y120670D02*
X354429D01*
X356790Y123031D01*
Y123622D01*
X356200Y124212D01*
X355019D01*
X354429Y123622D01*
X354824Y220276D02*
Y223818D01*
X356595D01*
X357186Y223228D01*
Y222047D01*
X356595Y221457D01*
X354824D01*
X356005D02*
X357186Y220276D01*
X358366D02*
X359547D01*
X358957D01*
Y223818D01*
X358366Y223228D01*
X361318Y220276D02*
X362499D01*
X361908D01*
Y223818D01*
X361318Y223228D01*
X332480Y201379D02*
X328938D01*
Y203150D01*
X329528Y203740D01*
X330709D01*
X331299Y203150D01*
Y201379D01*
Y202560D02*
X332480Y203740D01*
X331889Y204921D02*
X332480Y205511D01*
Y206692D01*
X331889Y207282D01*
X329528D01*
X328938Y206692D01*
Y205511D01*
X329528Y204921D01*
X330118D01*
X330709Y205511D01*
Y207282D01*
X362403Y108465D02*
Y112007D01*
X364174D01*
X364764Y111417D01*
Y110236D01*
X364174Y109646D01*
X362403D01*
X363583D02*
X364764Y108465D01*
X365945Y111417D02*
X366535Y112007D01*
X367716D01*
X368306Y111417D01*
Y110827D01*
X367716Y110236D01*
X368306Y109646D01*
Y109055D01*
X367716Y108465D01*
X366535D01*
X365945Y109055D01*
Y109646D01*
X366535Y110236D01*
X365945Y110827D01*
Y111417D01*
X366535Y110236D02*
X367716D01*
X411614Y180906D02*
X408071D01*
Y182677D01*
X408662Y183268D01*
X409842D01*
X410433Y182677D01*
Y180906D01*
Y182087D02*
X411614Y183268D01*
X408071Y184449D02*
Y186810D01*
X408662D01*
X411023Y184449D01*
X411614D01*
X418700Y154922D02*
X415158D01*
Y156693D01*
X415748Y157284D01*
X416929D01*
X417520Y156693D01*
Y154922D01*
Y156103D02*
X418700Y157284D01*
X415158Y160826D02*
X415748Y159645D01*
X416929Y158464D01*
X418110D01*
X418700Y159055D01*
Y160236D01*
X418110Y160826D01*
X417520D01*
X416929Y160236D01*
Y158464D01*
X216733Y142323D02*
Y145866D01*
X218504D01*
X219095Y145275D01*
Y144095D01*
X218504Y143504D01*
X216733D01*
X217914D02*
X219095Y142323D01*
X222637Y145866D02*
X220275D01*
Y144095D01*
X221456Y144685D01*
X222046D01*
X222637Y144095D01*
Y142914D01*
X222046Y142323D01*
X220866D01*
X220275Y142914D01*
X216733Y151379D02*
Y154921D01*
X218504D01*
X219095Y154330D01*
Y153150D01*
X218504Y152559D01*
X216733D01*
X217914D02*
X219095Y151379D01*
X222046D02*
Y154921D01*
X220275Y153150D01*
X222637D01*
X216339Y161221D02*
Y164763D01*
X218111D01*
X218701Y164173D01*
Y162992D01*
X218111Y162402D01*
X216339D01*
X217520D02*
X218701Y161221D01*
X222243D02*
X219882D01*
X222243Y163583D01*
Y164173D01*
X221653Y164763D01*
X220472D01*
X219882Y164173D01*
X217717Y171064D02*
Y174606D01*
X219488D01*
X220079Y174015D01*
Y172835D01*
X219488Y172244D01*
X217717D01*
X218898D02*
X220079Y171064D01*
X221259D02*
X222440D01*
X221850D01*
Y174606D01*
X221259Y174015D01*
X393801Y163583D02*
Y167125D01*
X395572D01*
X396163Y166535D01*
Y165354D01*
X395572Y164764D01*
X393801D01*
X397343Y167125D02*
Y163583D01*
X399114D01*
X399705Y164174D01*
Y164764D01*
X399114Y165354D01*
X397343D01*
X399114D01*
X399705Y165945D01*
Y166535D01*
X399114Y167125D01*
X397343D01*
X400885Y163583D02*
X402066D01*
X401476D01*
Y167125D01*
X400885Y166535D01*
X406199Y167125D02*
X403837D01*
Y165354D01*
X405018Y165945D01*
X405608D01*
X406199Y165354D01*
Y164174D01*
X405608Y163583D01*
X404428D01*
X403837Y164174D01*
X393801Y153347D02*
Y156889D01*
X395572D01*
X396163Y156299D01*
Y155118D01*
X395572Y154528D01*
X393801D01*
X397343Y156889D02*
Y153347D01*
X399114D01*
X399705Y153937D01*
Y154528D01*
X399114Y155118D01*
X397343D01*
X399114D01*
X399705Y155709D01*
Y156299D01*
X399114Y156889D01*
X397343D01*
X400885Y153347D02*
X402066D01*
X401476D01*
Y156889D01*
X400885Y156299D01*
X405608Y153347D02*
Y156889D01*
X403837Y155118D01*
X406199D01*
X400196Y132384D02*
X396654D01*
Y134155D01*
X397245Y134745D01*
X398425D01*
X399015Y134155D01*
Y132384D01*
X396654Y135926D02*
X400196D01*
Y137697D01*
X399606Y138287D01*
X399015D01*
X398425Y137697D01*
Y135926D01*
Y137697D01*
X397835Y138287D01*
X397245D01*
X396654Y137697D01*
Y135926D01*
X400196Y139468D02*
Y140649D01*
Y140059D01*
X396654D01*
X397245Y139468D01*
Y142420D02*
X396654Y143010D01*
Y144191D01*
X397245Y144781D01*
X397835D01*
X398425Y144191D01*
Y143601D01*
Y144191D01*
X399015Y144781D01*
X399606D01*
X400196Y144191D01*
Y143010D01*
X399606Y142420D01*
X391535Y128053D02*
X387993D01*
Y129824D01*
X388583Y130415D01*
X389764D01*
X390354Y129824D01*
Y128053D01*
X387993Y131595D02*
X391535D01*
Y133366D01*
X390945Y133957D01*
X390354D01*
X389764Y133366D01*
Y131595D01*
Y133366D01*
X389173Y133957D01*
X388583D01*
X387993Y133366D01*
Y131595D01*
X391535Y135137D02*
Y136318D01*
Y135728D01*
X387993D01*
X388583Y135137D01*
X391535Y140451D02*
Y138089D01*
X389173Y140451D01*
X388583D01*
X387993Y139860D01*
Y138680D01*
X388583Y138089D01*
X373723Y138386D02*
Y141929D01*
X375494D01*
X376084Y141338D01*
Y140157D01*
X375494Y139567D01*
X373723D01*
X377265Y141929D02*
Y138386D01*
X379036D01*
X379626Y138977D01*
Y139567D01*
X379036Y140157D01*
X377265D01*
X379036D01*
X379626Y140748D01*
Y141338D01*
X379036Y141929D01*
X377265D01*
X380807Y138386D02*
X381988D01*
X381397D01*
Y141929D01*
X380807Y141338D01*
X383759D02*
X384349Y141929D01*
X385530D01*
X386120Y141338D01*
Y138977D01*
X385530Y138386D01*
X384349D01*
X383759Y138977D01*
Y141338D01*
X370275Y209450D02*
X366733D01*
Y211221D01*
X367323Y211812D01*
X368504D01*
X369094Y211221D01*
Y209450D01*
X366733Y212993D02*
X370275D01*
Y214764D01*
X369685Y215354D01*
X369094D01*
X368504Y214764D01*
Y212993D01*
Y214764D01*
X367914Y215354D01*
X367323D01*
X366733Y214764D01*
Y212993D01*
Y216535D02*
Y218896D01*
X367323D01*
X369685Y216535D01*
X370275D01*
X381498Y201378D02*
Y204921D01*
X383269D01*
X383859Y204330D01*
Y203150D01*
X383269Y202559D01*
X381498D01*
X385040Y204921D02*
Y201378D01*
X386811D01*
X387401Y201969D01*
Y202559D01*
X386811Y203150D01*
X385040D01*
X386811D01*
X387401Y203740D01*
Y204330D01*
X386811Y204921D01*
X385040D01*
X390943D02*
X388582D01*
Y203150D01*
X389763Y203740D01*
X390353D01*
X390943Y203150D01*
Y201969D01*
X390353Y201378D01*
X389172D01*
X388582Y201969D01*
X378447Y194292D02*
Y197834D01*
X380218D01*
X380808Y197244D01*
Y196063D01*
X380218Y195473D01*
X378447D01*
X381989Y194292D02*
Y196653D01*
X383170Y197834D01*
X384350Y196653D01*
Y194292D01*
Y196063D01*
X381989D01*
X385531Y194292D02*
X386712D01*
X386122D01*
Y197834D01*
X385531Y197244D01*
X390844Y197834D02*
X388483D01*
Y196063D01*
X389664Y196653D01*
X390254D01*
X390844Y196063D01*
Y194882D01*
X390254Y194292D01*
X389073D01*
X388483Y194882D01*
X383171Y189567D02*
Y193110D01*
X384942D01*
X385533Y192519D01*
Y191339D01*
X384942Y190748D01*
X383171D01*
X386714Y189567D02*
Y191929D01*
X387894Y193110D01*
X389075Y191929D01*
Y189567D01*
Y191339D01*
X386714D01*
X390256Y189567D02*
X391436D01*
X390846D01*
Y193110D01*
X390256Y192519D01*
X395569Y189567D02*
X393207D01*
X395569Y191929D01*
Y192519D01*
X394978Y193110D01*
X393798D01*
X393207Y192519D01*
X394785Y184843D02*
Y188385D01*
X396556D01*
X397147Y187795D01*
Y186614D01*
X396556Y186024D01*
X394785D01*
X398327Y184843D02*
Y187205D01*
X399508Y188385D01*
X400689Y187205D01*
Y184843D01*
Y186614D01*
X398327D01*
X401870Y184843D02*
X403050D01*
X402460D01*
Y188385D01*
X401870Y187795D01*
X404821Y184843D02*
X406002D01*
X405412D01*
Y188385D01*
X404821Y187795D01*
X380022Y176969D02*
Y180511D01*
X381793D01*
X382383Y179921D01*
Y178740D01*
X381793Y178150D01*
X380022D01*
X383564Y176969D02*
Y179331D01*
X384745Y180511D01*
X385925Y179331D01*
Y176969D01*
Y178740D01*
X383564D01*
X387106Y176969D02*
X388287D01*
X387696D01*
Y180511D01*
X387106Y179921D01*
X390058D02*
X390648Y180511D01*
X391829D01*
X392419Y179921D01*
Y177559D01*
X391829Y176969D01*
X390648D01*
X390058Y177559D01*
Y179921D01*
X394096Y173819D02*
Y177362D01*
X395867D01*
X396458Y176771D01*
Y175591D01*
X395867Y175000D01*
X394096D01*
X397638Y173819D02*
Y176181D01*
X398819Y177362D01*
X400000Y176181D01*
Y173819D01*
Y175591D01*
X397638D01*
X401180Y174410D02*
X401771Y173819D01*
X402951D01*
X403542Y174410D01*
Y176771D01*
X402951Y177362D01*
X401771D01*
X401180Y176771D01*
Y176181D01*
X401771Y175591D01*
X403542D01*
X379135Y166339D02*
Y169881D01*
X380907D01*
X381497Y169291D01*
Y168110D01*
X380907Y167520D01*
X379135D01*
X382678Y166339D02*
Y168701D01*
X383858Y169881D01*
X385039Y168701D01*
Y166339D01*
Y168110D01*
X382678D01*
X386220Y169291D02*
X386810Y169881D01*
X387991D01*
X388581Y169291D01*
Y168701D01*
X387991Y168110D01*
X388581Y167520D01*
Y166929D01*
X387991Y166339D01*
X386810D01*
X386220Y166929D01*
Y167520D01*
X386810Y168110D01*
X386220Y168701D01*
Y169291D01*
X386810Y168110D02*
X387991D01*
X336222Y134056D02*
Y137598D01*
X337993D01*
X338583Y137007D01*
Y135827D01*
X337993Y135236D01*
X336222D01*
X339764Y134056D02*
Y136417D01*
X340945Y137598D01*
X342126Y136417D01*
Y134056D01*
Y135827D01*
X339764D01*
X345668Y137598D02*
X344487Y137007D01*
X343306Y135827D01*
Y134646D01*
X343897Y134056D01*
X345077D01*
X345668Y134646D01*
Y135236D01*
X345077Y135827D01*
X343306D01*
X327167Y141536D02*
Y145078D01*
X328938D01*
X329528Y144488D01*
Y143307D01*
X328938Y142717D01*
X327167D01*
X330709Y141536D02*
Y143897D01*
X331890Y145078D01*
X333070Y143897D01*
Y141536D01*
Y143307D01*
X330709D01*
X334251Y144488D02*
X334842Y145078D01*
X336022D01*
X336613Y144488D01*
Y143897D01*
X336022Y143307D01*
X335432D01*
X336022D01*
X336613Y142717D01*
Y142126D01*
X336022Y141536D01*
X334842D01*
X334251Y142126D01*
X464174Y173031D02*
Y169489D01*
X466535D01*
X467716D02*
X468897D01*
X468306D01*
Y173031D01*
X467716Y172441D01*
X346063Y207677D02*
X344882D01*
X345473D01*
Y204725D01*
X344882Y204134D01*
X344292D01*
X343702Y204725D01*
X347244Y204134D02*
X348424D01*
X347834D01*
Y207677D01*
X347244Y207086D01*
X354922Y190749D02*
Y188387D01*
X356693D01*
Y189568D01*
Y188387D01*
X358464D01*
X354922Y191929D02*
X358464D01*
Y193700D01*
X357874Y194291D01*
X357283D01*
X356693Y193700D01*
Y191929D01*
Y193700D01*
X356102Y194291D01*
X355512D01*
X354922Y193700D01*
Y191929D01*
X358464Y195472D02*
Y196652D01*
Y196062D01*
X354922D01*
X355512Y195472D01*
X443506Y187992D02*
Y184449D01*
X445277D01*
X445867Y185040D01*
Y187401D01*
X445277Y187992D01*
X443506D01*
X447048Y184449D02*
X448819D01*
X449410Y185040D01*
X448819Y185630D01*
X447639D01*
X447048Y186221D01*
X447639Y186811D01*
X449410D01*
X450590Y187992D02*
Y184449D01*
Y186221D01*
X451181Y186811D01*
X452361D01*
X452952Y186221D01*
Y184449D01*
X456494D02*
X454133D01*
X456494Y186811D01*
Y187401D01*
X455904Y187992D01*
X454723D01*
X454133Y187401D01*
X454726Y104921D02*
Y101379D01*
X456497D01*
X457088Y101969D01*
Y104330D01*
X456497Y104921D01*
X454726D01*
X458268Y101379D02*
X460040D01*
X460630Y101969D01*
X460040Y102559D01*
X458859D01*
X458268Y103150D01*
X458859Y103740D01*
X460630D01*
X461811Y104921D02*
Y101379D01*
Y103150D01*
X462401Y103740D01*
X463582D01*
X464172Y103150D01*
Y101379D01*
X465353D02*
X466534D01*
X465943D01*
Y104921D01*
X465353Y104330D01*
X223723Y88976D02*
Y85434D01*
X225494D01*
X226084Y86024D01*
Y88385D01*
X225494Y88976D01*
X223723D01*
X227265Y85434D02*
X228446D01*
X227855D01*
Y87795D01*
X227265D01*
X230217Y85434D02*
X231988D01*
X232578Y86024D01*
X231988Y86614D01*
X230807D01*
X230217Y87204D01*
X230807Y87795D01*
X232578D01*
X233759Y84253D02*
Y87795D01*
X235530D01*
X236120Y87204D01*
Y86024D01*
X235530Y85434D01*
X233759D01*
X237301D02*
X238482D01*
X237892D01*
Y88976D01*
X237301Y88385D01*
X318111Y204133D02*
Y200591D01*
X319882D01*
X320472Y201182D01*
Y203543D01*
X319882Y204133D01*
X318111D01*
X321653Y200591D02*
X322834D01*
X322243D01*
Y204133D01*
X321653Y203543D01*
X395276Y199607D02*
X394686Y199017D01*
Y197836D01*
X395276Y197246D01*
X397637D01*
X398228Y197836D01*
Y199017D01*
X397637Y199607D01*
X398228Y203149D02*
Y200788D01*
X395866Y203149D01*
X395276D01*
X394686Y202559D01*
Y201378D01*
X395276Y200788D01*
X394686Y204330D02*
Y206691D01*
X395276D01*
X397637Y204330D01*
X398228D01*
X412992Y215749D02*
X412402Y215158D01*
Y213978D01*
X412992Y213387D01*
X415354D01*
X415944Y213978D01*
Y215158D01*
X415354Y215749D01*
X415944Y219291D02*
Y216930D01*
X413583Y219291D01*
X412992D01*
X412402Y218701D01*
Y217520D01*
X412992Y216930D01*
X412402Y222833D02*
X412992Y221652D01*
X414173Y220472D01*
X415354D01*
X415944Y221062D01*
Y222243D01*
X415354Y222833D01*
X414764D01*
X414173Y222243D01*
Y220472D01*
X422048Y214961D02*
X421457Y214371D01*
Y213190D01*
X422048Y212600D01*
X424409D01*
X424999Y213190D01*
Y214371D01*
X424409Y214961D01*
X424999Y218503D02*
Y216142D01*
X422638Y218503D01*
X422048D01*
X421457Y217913D01*
Y216733D01*
X422048Y216142D01*
X421457Y222046D02*
Y219684D01*
X423228D01*
X422638Y220865D01*
Y221455D01*
X423228Y222046D01*
X424409D01*
X424999Y221455D01*
Y220275D01*
X424409Y219684D01*
X442520Y216536D02*
X441930Y215946D01*
Y214765D01*
X442520Y214175D01*
X444881D01*
X445472Y214765D01*
Y215946D01*
X444881Y216536D01*
X445472Y220078D02*
Y217717D01*
X443110Y220078D01*
X442520D01*
X441930Y219488D01*
Y218307D01*
X442520Y217717D01*
X445472Y223030D02*
X441930D01*
X443701Y221259D01*
Y223621D01*
X462205Y219292D02*
X461615Y218702D01*
Y217521D01*
X462205Y216931D01*
X464567D01*
X465157Y217521D01*
Y218702D01*
X464567Y219292D01*
X465157Y222834D02*
Y220473D01*
X462795Y222834D01*
X462205D01*
X461615Y222244D01*
Y221063D01*
X462205Y220473D01*
Y224015D02*
X461615Y224605D01*
Y225786D01*
X462205Y226376D01*
X462795D01*
X463386Y225786D01*
Y225196D01*
Y225786D01*
X463976Y226376D01*
X464567D01*
X465157Y225786D01*
Y224605D01*
X464567Y224015D01*
X453150Y218898D02*
X452560Y218308D01*
Y217127D01*
X453150Y216537D01*
X455511D01*
X456102Y217127D01*
Y218308D01*
X455511Y218898D01*
X456102Y222441D02*
Y220079D01*
X453740Y222441D01*
X453150D01*
X452560Y221850D01*
Y220670D01*
X453150Y220079D01*
X456102Y225983D02*
Y223621D01*
X453740Y225983D01*
X453150D01*
X452560Y225392D01*
Y224212D01*
X453150Y223621D01*
X456497Y131102D02*
X455906Y131692D01*
X454726D01*
X454135Y131102D01*
Y128741D01*
X454726Y128150D01*
X455906D01*
X456497Y128741D01*
X460039Y128150D02*
X457677D01*
X460039Y130512D01*
Y131102D01*
X459448Y131692D01*
X458268D01*
X457677Y131102D01*
X461220Y128150D02*
X462400D01*
X461810D01*
Y131692D01*
X461220Y131102D01*
X457481Y122047D02*
X456891Y122637D01*
X455710D01*
X455120Y122047D01*
Y119685D01*
X455710Y119095D01*
X456891D01*
X457481Y119685D01*
X461023Y119095D02*
X458662D01*
X461023Y121457D01*
Y122047D01*
X460433Y122637D01*
X459252D01*
X458662Y122047D01*
X462204D02*
X462794Y122637D01*
X463975D01*
X464565Y122047D01*
Y119685D01*
X463975Y119095D01*
X462794D01*
X462204Y119685D01*
Y122047D01*
X457383Y112992D02*
X456792Y113582D01*
X455612D01*
X455021Y112992D01*
Y110630D01*
X455612Y110040D01*
X456792D01*
X457383Y110630D01*
X458563Y110040D02*
X459744D01*
X459154D01*
Y113582D01*
X458563Y112992D01*
X461515Y110630D02*
X462105Y110040D01*
X463286D01*
X463876Y110630D01*
Y112992D01*
X463286Y113582D01*
X462105D01*
X461515Y112992D01*
Y112401D01*
X462105Y111811D01*
X463876D01*
X431496Y184548D02*
X430906Y183958D01*
Y182777D01*
X431496Y182186D01*
X433858D01*
X434448Y182777D01*
Y183958D01*
X433858Y184548D01*
X434448Y185729D02*
Y186909D01*
Y186319D01*
X430906D01*
X431496Y185729D01*
Y188680D02*
X430906Y189271D01*
Y190452D01*
X431496Y191042D01*
X432087D01*
X432677Y190452D01*
X433267Y191042D01*
X433858D01*
X434448Y190452D01*
Y189271D01*
X433858Y188680D01*
X433267D01*
X432677Y189271D01*
X432087Y188680D01*
X431496D01*
X432677Y189271D02*
Y190452D01*
X422441Y186516D02*
X421851Y185926D01*
Y184745D01*
X422441Y184155D01*
X424803D01*
X425393Y184745D01*
Y185926D01*
X424803Y186516D01*
X425393Y187697D02*
Y188878D01*
Y188287D01*
X421851D01*
X422441Y187697D01*
X421851Y190649D02*
Y193010D01*
X422441D01*
X424803Y190649D01*
X425393D01*
X411418Y119981D02*
X410827Y119391D01*
Y118210D01*
X411418Y117620D01*
X413779D01*
X414369Y118210D01*
Y119391D01*
X413779Y119981D01*
X414369Y121162D02*
Y122342D01*
Y121752D01*
X410827D01*
X411418Y121162D01*
X410827Y126475D02*
X411418Y125294D01*
X412598Y124114D01*
X413779D01*
X414369Y124704D01*
Y125885D01*
X413779Y126475D01*
X413189D01*
X412598Y125885D01*
Y124114D01*
X424803Y151083D02*
X424213Y150493D01*
Y149312D01*
X424803Y148722D01*
X427165D01*
X427755Y149312D01*
Y150493D01*
X427165Y151083D01*
X427755Y152264D02*
Y153445D01*
Y152854D01*
X424213D01*
X424803Y152264D01*
X424213Y157577D02*
Y155216D01*
X425984D01*
X425394Y156397D01*
Y156987D01*
X425984Y157577D01*
X427165D01*
X427755Y156987D01*
Y155806D01*
X427165Y155216D01*
X338189Y177068D02*
X337599Y176477D01*
Y175296D01*
X338189Y174706D01*
X340551D01*
X341141Y175296D01*
Y176477D01*
X340551Y177068D01*
X341141Y178248D02*
Y179429D01*
Y178839D01*
X337599D01*
X338189Y178248D01*
X341141Y183562D02*
Y181200D01*
X338780Y183562D01*
X338189D01*
X337599Y182971D01*
Y181790D01*
X338189Y181200D01*
X307973Y155905D02*
X307383Y156495D01*
X306202D01*
X305611Y155905D01*
Y153544D01*
X306202Y152953D01*
X307383D01*
X307973Y153544D01*
X309154Y152953D02*
X310334D01*
X309744D01*
Y156495D01*
X309154Y155905D01*
X312105Y152953D02*
X313286D01*
X312696D01*
Y156495D01*
X312105Y155905D01*
X293603Y168897D02*
X293013Y169488D01*
X291832D01*
X291242Y168897D01*
Y166536D01*
X291832Y165945D01*
X293013D01*
X293603Y166536D01*
X294784Y165945D02*
X295965D01*
X295374D01*
Y169488D01*
X294784Y168897D01*
X297736D02*
X298326Y169488D01*
X299507D01*
X300097Y168897D01*
Y166536D01*
X299507Y165945D01*
X298326D01*
X297736Y166536D01*
Y168897D01*
X295079Y180708D02*
X294489Y181299D01*
X293308D01*
X292718Y180708D01*
Y178347D01*
X293308Y177757D01*
X294489D01*
X295079Y178347D01*
X298621Y181299D02*
X297440Y180708D01*
X296260Y179528D01*
Y178347D01*
X296850Y177757D01*
X298031D01*
X298621Y178347D01*
Y178937D01*
X298031Y179528D01*
X296260D01*
X294685Y188976D02*
X294095Y189566D01*
X292914D01*
X292324Y188976D01*
Y186615D01*
X292914Y186024D01*
X294095D01*
X294685Y186615D01*
X298227Y189566D02*
X295866D01*
Y187795D01*
X297047Y188386D01*
X297637D01*
X298227Y187795D01*
Y186615D01*
X297637Y186024D01*
X296456D01*
X295866Y186615D01*
X201575Y113189D02*
X200985Y112599D01*
Y111418D01*
X201575Y110828D01*
X203937D01*
X204527Y111418D01*
Y112599D01*
X203937Y113189D01*
X201575Y114370D02*
X200985Y114960D01*
Y116141D01*
X201575Y116731D01*
X202166D01*
X202756Y116141D01*
Y115551D01*
Y116141D01*
X203346Y116731D01*
X203937D01*
X204527Y116141D01*
Y114960D01*
X203937Y114370D01*
X202363Y175984D02*
X201772Y175394D01*
Y174213D01*
X202363Y173623D01*
X204724D01*
X205314Y174213D01*
Y175394D01*
X204724Y175984D01*
X205314Y177165D02*
Y178346D01*
Y177755D01*
X201772D01*
X202363Y177165D01*
D16*
X413386Y224409D02*
Y229132D01*
X415747D01*
X416534Y228345D01*
Y226770D01*
X415747Y225983D01*
X413386D01*
X418109Y227557D02*
Y224409D01*
Y225983D01*
X418896Y226770D01*
X419683Y227557D01*
X420470D01*
X423619Y224409D02*
X425193D01*
X425980Y225196D01*
Y226770D01*
X425193Y227557D01*
X423619D01*
X422832Y226770D01*
Y225196D01*
X423619Y224409D01*
X429129Y222835D02*
X429916D01*
X430703Y223622D01*
Y227557D01*
X428342D01*
X427555Y226770D01*
Y225196D01*
X428342Y224409D01*
X430703D01*
X432277D02*
Y225196D01*
X433065D01*
Y224409D01*
X432277D01*
X457087Y92913D02*
X460235D01*
X430315Y92519D02*
X433464D01*
X431889Y94094D02*
Y90945D01*
X351181Y93306D02*
Y88583D01*
X353542D01*
X354330Y89370D01*
Y92518D01*
X353542Y93306D01*
X351181D01*
X355904D02*
Y88583D01*
X358265D01*
X359053Y89370D01*
Y90157D01*
X358265Y90944D01*
X355904D01*
X358265D01*
X359053Y91731D01*
Y92518D01*
X358265Y93306D01*
X355904D01*
X363775D02*
X360627D01*
Y90944D01*
X362201Y91731D01*
X362988D01*
X363775Y90944D01*
Y89370D01*
X362988Y88583D01*
X361414D01*
X360627Y89370D01*
X365350Y88583D02*
Y91731D01*
X366924Y93306D01*
X368498Y91731D01*
Y88583D01*
Y90944D01*
X365350D01*
X370073Y93306D02*
X373221D01*
X371647D01*
Y88583D01*
X241732Y194487D02*
X242519Y195274D01*
X244094D01*
X244881Y194487D01*
Y191338D01*
X244094Y190551D01*
X242519D01*
X241732Y191338D01*
Y194487D01*
X246455D02*
X247242Y195274D01*
X248817D01*
X249604Y194487D01*
Y193700D01*
X248817Y192913D01*
X249604Y192125D01*
Y191338D01*
X248817Y190551D01*
X247242D01*
X246455Y191338D01*
Y192125D01*
X247242Y192913D01*
X246455Y193700D01*
Y194487D01*
X247242Y192913D02*
X248817D01*
X251178Y190551D02*
Y191338D01*
X251965D01*
Y190551D01*
X251178D01*
X255114D02*
X256688D01*
X255901D01*
Y195274D01*
X255114Y194487D01*
X259050D02*
X259837Y195274D01*
X261411D01*
X262198Y194487D01*
Y191338D01*
X261411Y190551D01*
X259837D01*
X259050Y191338D01*
Y194487D01*
X263772Y190551D02*
Y191338D01*
X264560D01*
Y190551D01*
X263772D01*
X270857D02*
X267708D01*
X270857Y193700D01*
Y194487D01*
X270070Y195274D01*
X268495D01*
X267708Y194487D01*
X272431D02*
X273218Y195274D01*
X274793D01*
X275580Y194487D01*
Y191338D01*
X274793Y190551D01*
X273218D01*
X272431Y191338D01*
Y194487D01*
X280303Y190551D02*
X277154D01*
X280303Y193700D01*
Y194487D01*
X279515Y195274D01*
X277941D01*
X277154Y194487D01*
X284238Y190551D02*
Y195274D01*
X281877Y192913D01*
X285025D01*
X229134Y199213D02*
Y203936D01*
X231495D01*
X232282Y203148D01*
Y201574D01*
X231495Y200787D01*
X229134D01*
X230708D02*
X232282Y199213D01*
X236218D02*
X234644D01*
X233857Y200000D01*
Y201574D01*
X234644Y202361D01*
X236218D01*
X237005Y201574D01*
Y200787D01*
X233857D01*
X238580Y202361D02*
X240154Y199213D01*
X241728Y202361D01*
X244090Y199213D02*
X245664D01*
X246451Y200000D01*
Y201574D01*
X245664Y202361D01*
X244090D01*
X243302Y201574D01*
Y200000D01*
X244090Y199213D01*
X248025Y202361D02*
X251174Y199213D01*
X249600Y200787D01*
X251174Y202361D01*
X248025Y199213D01*
X260620Y203148D02*
X259833Y203936D01*
X258258D01*
X257471Y203148D01*
Y200000D01*
X258258Y199213D01*
X259833D01*
X260620Y200000D01*
X262981Y199213D02*
X264556D01*
X265343Y200000D01*
Y201574D01*
X264556Y202361D01*
X262981D01*
X262194Y201574D01*
Y200000D01*
X262981Y199213D01*
X266917Y202361D02*
Y200000D01*
X267704Y199213D01*
X270065D01*
Y202361D01*
X271640Y199213D02*
Y202361D01*
X274001D01*
X274788Y201574D01*
Y199213D01*
X277150Y203148D02*
Y202361D01*
X276363D01*
X277937D01*
X277150D01*
Y200000D01*
X277937Y199213D01*
X282660D02*
X281086D01*
X280298Y200000D01*
Y201574D01*
X281086Y202361D01*
X282660D01*
X283447Y201574D01*
Y200787D01*
X280298D01*
X285021Y202361D02*
Y199213D01*
Y200787D01*
X285808Y201574D01*
X286596Y202361D01*
X287383D01*
X294467D02*
X296041Y199213D01*
X297616Y202361D01*
X302339Y199213D02*
X299190D01*
X302339Y202361D01*
Y203148D01*
X301551Y203936D01*
X299977D01*
X299190Y203148D01*
D17*
X314372Y196456D02*
D03*
M02*
