G04*
G04 #@! TF.GenerationSoftware,Altium Limited,Altium Designer,22.2.1 (43)*
G04*
G04 Layer_Color=128*
%FSLAX25Y25*%
%MOIN*%
G70*
G04*
G04 #@! TF.SameCoordinates,3A658960-9040-4E96-AE8A-DEED508C0D5D*
G04*
G04*
G04 #@! TF.FilePolarity,Positive*
G04*
G01*
G75*
%ADD20R,0.06300X0.05000*%
%ADD23R,0.05000X0.06300*%
%ADD73R,0.02389X0.10228*%
G04:AMPARAMS|DCode=74|XSize=102.28mil|YSize=23.89mil|CornerRadius=11.95mil|HoleSize=0mil|Usage=FLASHONLY|Rotation=270.000|XOffset=0mil|YOffset=0mil|HoleType=Round|Shape=RoundedRectangle|*
%AMROUNDEDRECTD74*
21,1,0.10228,0.00000,0,0,270.0*
21,1,0.07839,0.02389,0,0,270.0*
1,1,0.02389,0.00000,-0.03919*
1,1,0.02389,0.00000,0.03919*
1,1,0.02389,0.00000,0.03919*
1,1,0.02389,0.00000,-0.03919*
%
%ADD74ROUNDEDRECTD74*%
D20*
X311811Y178347D02*
D03*
Y170346D02*
D03*
X321260Y170410D02*
D03*
Y178410D02*
D03*
X346457Y179590D02*
D03*
Y171590D02*
D03*
X337402Y168047D02*
D03*
Y176047D02*
D03*
X359842Y144882D02*
D03*
Y152882D02*
D03*
X368110Y144819D02*
D03*
Y152819D02*
D03*
X375984Y144819D02*
D03*
Y152819D02*
D03*
X333858Y117386D02*
D03*
Y109386D02*
D03*
X324803Y117386D02*
D03*
Y109386D02*
D03*
D23*
X354661Y179528D02*
D03*
X362661D02*
D03*
X378410Y175197D02*
D03*
X370409D02*
D03*
X339307Y159843D02*
D03*
X347307D02*
D03*
X339307Y150787D02*
D03*
X347307D02*
D03*
X284583Y84646D02*
D03*
X292583D02*
D03*
D73*
X258937Y149433D02*
D03*
D74*
X263937D02*
D03*
X268937D02*
D03*
X273937D02*
D03*
X278937D02*
D03*
X283937D02*
D03*
X288937D02*
D03*
X293937D02*
D03*
X298937D02*
D03*
X303937D02*
D03*
X308937D02*
D03*
X313937D02*
D03*
Y113386D02*
D03*
X308937D02*
D03*
X303937D02*
D03*
X298937D02*
D03*
X293937D02*
D03*
X288937D02*
D03*
X283937D02*
D03*
X278937D02*
D03*
X273937D02*
D03*
X268937D02*
D03*
X263937D02*
D03*
X258937D02*
D03*
M02*
