G04*
G04 #@! TF.GenerationSoftware,Altium Limited,Altium Designer,22.2.1 (43)*
G04*
G04 Layer_Physical_Order=2*
G04 Layer_Color=36540*
%FSLAX25Y25*%
%MOIN*%
G70*
G04*
G04 #@! TF.SameCoordinates,3A658960-9040-4E96-AE8A-DEED508C0D5D*
G04*
G04*
G04 #@! TF.FilePolarity,Positive*
G04*
G01*
G75*
%ADD15C,0.00866*%
%ADD61C,0.03937*%
%ADD68O,0.07480X0.07874*%
%ADD70C,0.07480*%
%ADD72C,0.04724*%
G36*
X371857Y227055D02*
X371681Y226631D01*
X371624Y226197D01*
X376299D01*
Y225197D01*
X377299D01*
Y220351D01*
X377537Y220382D01*
X378690Y220860D01*
X379680Y221619D01*
X380440Y222609D01*
X380611Y223023D01*
X381152D01*
X381485Y222220D01*
X381496Y222205D01*
Y218110D01*
X383071Y216535D01*
X401575D01*
X406299Y211811D01*
X420472D01*
X422835Y209449D01*
Y203937D01*
X418669Y199772D01*
X418483Y199722D01*
X417541Y199178D01*
X416771Y198408D01*
X416227Y197465D01*
X416177Y197279D01*
X385827Y166929D01*
Y146457D01*
X379134Y139764D01*
X375197D01*
X372772Y142189D01*
X373031Y143157D01*
Y144245D01*
X372750Y145296D01*
X372205Y146239D01*
X372047Y146397D01*
Y173228D01*
X368110Y177165D01*
X275688D01*
X274954Y177362D01*
X273865D01*
X273131Y177165D01*
X242520D01*
X231496Y166142D01*
Y126772D01*
X216535Y111811D01*
X213715D01*
X213581Y112311D01*
X214328Y112742D01*
X215210Y113625D01*
X215834Y114706D01*
X216057Y115535D01*
X211417D01*
Y116535D01*
X210417D01*
Y121175D01*
X209588Y120952D01*
X208507Y120328D01*
X207624Y119446D01*
X207193Y118699D01*
X206693Y118833D01*
Y123228D01*
X216535Y133071D01*
Y134377D01*
X216553Y134408D01*
X216929Y135810D01*
Y137261D01*
X216553Y138663D01*
X216535Y138694D01*
Y144377D01*
X216553Y144408D01*
X216929Y145810D01*
Y147261D01*
X216553Y148663D01*
X216535Y148694D01*
Y154377D01*
X216553Y154408D01*
X216929Y155810D01*
Y157261D01*
X216553Y158663D01*
X216535Y158694D01*
Y161024D01*
X214667D01*
X213545Y161672D01*
X213495Y161685D01*
X213425Y162221D01*
X214328Y162742D01*
X215210Y163625D01*
X215834Y164706D01*
X216057Y165535D01*
X211417D01*
X206778D01*
X207000Y164706D01*
X207624Y163625D01*
X208507Y162742D01*
X209409Y162221D01*
X209340Y161685D01*
X209290Y161672D01*
X208168Y161024D01*
X207874D01*
X204724Y164173D01*
Y169291D01*
X227953Y192520D01*
X336614Y192520D01*
X371433Y227338D01*
X371857Y227055D01*
D02*
G37*
%LPC*%
G36*
X375299Y224197D02*
X371624D01*
X371681Y223763D01*
X372159Y222609D01*
X372919Y221619D01*
X373909Y220860D01*
X375062Y220382D01*
X375299Y220351D01*
Y224197D01*
D02*
G37*
G36*
X368248Y196836D02*
X367159D01*
X366108Y196554D01*
X365165Y196010D01*
X364396Y195240D01*
X363851Y194298D01*
X363570Y193246D01*
Y192158D01*
X363851Y191106D01*
X364396Y190164D01*
X364908Y189652D01*
X364802Y189546D01*
X364258Y188603D01*
X363976Y187552D01*
Y186464D01*
X364258Y185412D01*
X364802Y184470D01*
X365572Y183700D01*
X366515Y183156D01*
X367566Y182874D01*
X368654D01*
X369706Y183156D01*
X370649Y183700D01*
X371418Y184470D01*
X371962Y185412D01*
X372244Y186464D01*
Y187552D01*
X371962Y188603D01*
X371418Y189546D01*
X370906Y190058D01*
X371011Y190164D01*
X371556Y191106D01*
X371837Y192158D01*
Y193246D01*
X371556Y194298D01*
X371011Y195240D01*
X370242Y196010D01*
X369299Y196554D01*
X368248Y196836D01*
D02*
G37*
G36*
X212417Y171175D02*
Y167535D01*
X216057D01*
X215834Y168365D01*
X215210Y169446D01*
X214328Y170328D01*
X213247Y170952D01*
X212417Y171175D01*
D02*
G37*
G36*
X210417Y171175D02*
X209588Y170952D01*
X208507Y170328D01*
X207624Y169446D01*
X207000Y168365D01*
X206778Y167535D01*
X210417D01*
Y171175D01*
D02*
G37*
G36*
X212417Y121175D02*
Y117535D01*
X216057D01*
X215834Y118365D01*
X215210Y119446D01*
X214328Y120328D01*
X213247Y120952D01*
X212417Y121175D01*
D02*
G37*
%LPD*%
D15*
X206771Y229213D02*
X204409D01*
X206771Y231574D01*
Y232164D01*
X206181Y232755D01*
X205000D01*
X204409Y232164D01*
D61*
X222441Y177559D02*
X225590Y180709D01*
X222441Y127559D02*
Y177559D01*
X225590Y180709D02*
X344488D01*
X405905Y109449D02*
X418504Y122047D01*
X320472Y109449D02*
X405905D01*
X284016Y102362D02*
X313386D01*
X376299Y217008D02*
X383071Y210236D01*
X376299Y217008D02*
Y225197D01*
X383071Y210236D02*
X397638D01*
X418655Y154077D02*
X421747Y157170D01*
Y157383D01*
X418504Y149213D02*
X418655Y149363D01*
Y154077D01*
X375654Y177901D02*
X377280Y179528D01*
X375689Y179678D02*
X377280D01*
X344701Y180709D02*
X374658D01*
X377431Y179528D02*
X390350D01*
X375654Y144819D02*
Y177901D01*
X374658Y180709D02*
X375689Y179678D01*
X377280D02*
X377431Y179528D01*
X377280D02*
X377431D01*
X390350D02*
X418504Y207681D01*
X344488Y180709D02*
Y180922D01*
X350000Y186434D02*
Y201776D01*
X344488Y180922D02*
X350000Y186434D01*
X313386Y102362D02*
X320472Y109449D01*
X418504Y122047D02*
Y149213D01*
X211417Y166535D02*
X222441Y177559D01*
X211417Y116535D02*
X222441Y127559D01*
D68*
X376299Y225197D02*
D03*
D70*
X211417Y166535D02*
D03*
Y116535D02*
D03*
D72*
X284016Y102362D02*
D03*
X421747Y157383D02*
D03*
X377067Y179528D02*
D03*
X329528Y109449D02*
D03*
X418504Y149213D02*
D03*
X350000Y201776D02*
D03*
X418504Y207681D02*
D03*
X397638Y210236D02*
D03*
X375654Y144819D02*
D03*
X344488Y180709D02*
D03*
M02*
