G04*
G04 #@! TF.GenerationSoftware,Altium Limited,Altium Designer,22.2.1 (43)*
G04*
G04 Layer_Color=32896*
%FSLAX25Y25*%
%MOIN*%
G70*
G04*
G04 #@! TF.SameCoordinates,3A658960-9040-4E96-AE8A-DEED508C0D5D*
G04*
G04*
G04 #@! TF.FilePolarity,Positive*
G04*
G01*
G75*
%ADD10C,0.00984*%
%ADD12C,0.00700*%
%ADD13C,0.00787*%
%ADD14C,0.01000*%
%ADD15C,0.00866*%
%ADD60C,0.01968*%
D10*
X259429Y157893D02*
X258691Y158320D01*
Y157467D01*
X259429Y157893D01*
D12*
X351261Y183528D02*
X354661D01*
X351261Y179528D02*
Y183528D01*
Y175528D02*
Y179528D01*
Y175528D02*
X354661D01*
X362661D02*
X366061D01*
Y179528D01*
Y183528D01*
X362661D02*
X366061D01*
X315811Y178347D02*
Y181746D01*
X311811D02*
X315811D01*
X307811D02*
X311811D01*
X307811Y178347D02*
Y181746D01*
Y166946D02*
Y170346D01*
Y166946D02*
X311811D01*
X315811D01*
Y170346D01*
X317260Y167009D02*
Y170409D01*
Y167009D02*
X321260D01*
X325260D01*
Y170409D01*
Y178409D02*
Y181809D01*
X321260D02*
X325260D01*
X317260D02*
X321260D01*
X317260Y178409D02*
Y181809D01*
X378410Y171197D02*
X381809D01*
Y175197D01*
Y179197D01*
X378410D02*
X381809D01*
X367009D02*
X370409D01*
X367009Y175197D02*
Y179197D01*
Y171197D02*
Y175197D01*
Y171197D02*
X370409D01*
X350457Y179591D02*
Y182991D01*
X346457D02*
X350457D01*
X342457D02*
X346457D01*
X342457Y179591D02*
Y182991D01*
Y168191D02*
Y171591D01*
Y168191D02*
X346457D01*
X350457D01*
Y171591D01*
X333402Y164647D02*
Y168047D01*
Y164647D02*
X337402D01*
X341402D01*
Y168047D01*
Y176047D02*
Y179447D01*
X337402D02*
X341402D01*
X333402D02*
X337402D01*
X333402Y176047D02*
Y179447D01*
X335907Y163842D02*
X339307D01*
X335907Y159843D02*
Y163842D01*
Y155842D02*
Y159843D01*
Y155842D02*
X339307D01*
X347307D02*
X350707D01*
Y159843D01*
Y163842D01*
X347307D02*
X350707D01*
X335907Y154787D02*
X339307D01*
X335907Y150787D02*
Y154787D01*
Y146787D02*
Y150787D01*
Y146787D02*
X339307D01*
X347307D02*
X350707D01*
Y150787D01*
Y154787D01*
X347307D02*
X350707D01*
X355842Y141482D02*
Y144882D01*
Y141482D02*
X359842D01*
X363843D01*
Y144882D01*
Y152882D02*
Y156282D01*
X359842D02*
X363843D01*
X355842D02*
X359842D01*
X355842Y152882D02*
Y156282D01*
X364110Y141419D02*
Y144819D01*
Y141419D02*
X368110D01*
X372110D01*
Y144819D01*
Y152819D02*
Y156219D01*
X368110D02*
X372110D01*
X364110D02*
X368110D01*
X364110Y152819D02*
Y156219D01*
X371984Y141419D02*
Y144819D01*
Y141419D02*
X375984D01*
X379984D01*
Y144819D01*
Y152819D02*
Y156219D01*
X375984D02*
X379984D01*
X371984D02*
X375984D01*
X371984Y152819D02*
Y156219D01*
X337858Y117386D02*
Y120786D01*
X333858D02*
X337858D01*
X329858D02*
X333858D01*
X329858Y117386D02*
Y120786D01*
Y105986D02*
Y109386D01*
Y105986D02*
X333858D01*
X337858D01*
Y109386D01*
X328803Y117386D02*
Y120786D01*
X324803D02*
X328803D01*
X320803D02*
X324803D01*
X320803Y117386D02*
Y120786D01*
Y105986D02*
Y109386D01*
Y105986D02*
X324803D01*
X328803D01*
Y109386D01*
X281183Y88646D02*
X284583D01*
X281183Y84646D02*
Y88646D01*
Y80646D02*
Y84646D01*
Y80646D02*
X284583D01*
X292583D02*
X295983D01*
Y84646D01*
Y88646D01*
X292583D02*
X295983D01*
D13*
X435394Y88701D02*
Y98701D01*
Y88701D02*
X455394D01*
Y98701D01*
X435394D02*
X455394D01*
X256122Y120468D02*
Y142351D01*
Y120468D02*
X316752D01*
Y142351D01*
X256122D02*
X316752D01*
D14*
X198417Y130035D02*
X224417D01*
X198417D02*
Y173035D01*
X224417D01*
Y130035D02*
Y173035D01*
X198417Y80035D02*
X224417D01*
X198417D02*
Y123035D01*
X224417D01*
Y80035D02*
Y123035D01*
D15*
X360629Y188189D02*
X361220Y188779D01*
X362400D01*
X362991Y188189D01*
Y185827D01*
X362400Y185237D01*
X361220D01*
X360629Y185827D01*
X359448Y188189D02*
X358858Y188779D01*
X357677D01*
X357087Y188189D01*
Y187598D01*
X357677Y187008D01*
X358268D01*
X357677D01*
X357087Y186417D01*
Y185827D01*
X357677Y185237D01*
X358858D01*
X359448Y185827D01*
X353545Y185237D02*
X355906D01*
X353545Y187598D01*
Y188189D01*
X354135Y188779D01*
X355316D01*
X355906Y188189D01*
X468032Y233149D02*
Y229606D01*
X466260D01*
X465670Y230197D01*
Y230787D01*
X466260Y231377D01*
X468032D01*
X466260D01*
X465670Y231968D01*
Y232558D01*
X466260Y233149D01*
X468032D01*
X462718D02*
X463899D01*
X464489Y232558D01*
Y230197D01*
X463899Y229606D01*
X462718D01*
X462128Y230197D01*
Y232558D01*
X462718Y233149D01*
X460947D02*
X458586D01*
X459766D01*
Y229606D01*
X332284Y102559D02*
X331694Y103149D01*
Y104330D01*
X332284Y104920D01*
X334645D01*
X335236Y104330D01*
Y103149D01*
X334645Y102559D01*
X332284Y101378D02*
X331694Y100787D01*
Y99607D01*
X332284Y99016D01*
X332874D01*
X333465Y99607D01*
Y100197D01*
Y99607D01*
X334055Y99016D01*
X334645D01*
X335236Y99607D01*
Y100787D01*
X334645Y101378D01*
X335236Y97836D02*
Y96655D01*
Y97245D01*
X331694D01*
X332284Y97836D01*
X230314Y130119D02*
Y133661D01*
X228543D01*
X227953Y133071D01*
Y131890D01*
X228543Y131299D01*
X230314D01*
X226772Y130119D02*
X225591D01*
X226182D01*
Y133661D01*
X226772Y133071D01*
X249804Y141338D02*
X252755D01*
X253346Y140747D01*
Y139567D01*
X252755Y138976D01*
X249804D01*
X253346Y137796D02*
Y136615D01*
Y137205D01*
X249804D01*
X250394Y137796D01*
X323818Y192223D02*
X320276D01*
Y190452D01*
X320866Y189862D01*
X322047D01*
X322638Y190452D01*
Y192223D01*
Y191042D02*
X323818Y189862D01*
Y188681D02*
Y187500D01*
Y188091D01*
X320276D01*
X320866Y188681D01*
Y185729D02*
X320276Y185139D01*
Y183958D01*
X320866Y183368D01*
X323228D01*
X323818Y183958D01*
Y185139D01*
X323228Y185729D01*
X320866D01*
X304133Y82481D02*
Y86023D01*
X302362D01*
X301771Y85433D01*
Y84252D01*
X302362Y83662D01*
X304133D01*
X302952D02*
X301771Y82481D01*
X300591Y85433D02*
X300000Y86023D01*
X298820D01*
X298229Y85433D01*
Y84842D01*
X298820Y84252D01*
X299410D01*
X298820D01*
X298229Y83662D01*
Y83071D01*
X298820Y82481D01*
X300000D01*
X300591Y83071D01*
X455314Y100591D02*
Y104133D01*
X453543D01*
X452953Y103543D01*
Y102362D01*
X453543Y101772D01*
X455314D01*
X450001Y100591D02*
Y104133D01*
X451772Y102362D01*
X449410D01*
X231692Y80906D02*
Y84448D01*
X229921D01*
X229330Y83858D01*
Y82677D01*
X229921Y82087D01*
X231692D01*
X225788Y80906D02*
X228150D01*
X225788Y83267D01*
Y83858D01*
X226379Y84448D01*
X227559D01*
X228150Y83858D01*
X335237Y188582D02*
Y190943D01*
X337008D01*
Y189763D01*
Y190943D01*
X338779D01*
X335237Y187401D02*
X338779D01*
Y185630D01*
X338189Y185040D01*
X337598D01*
X337008Y185630D01*
Y187401D01*
Y185630D01*
X336418Y185040D01*
X335827D01*
X335237Y185630D01*
Y187401D01*
X338779Y181498D02*
Y183859D01*
X336418Y181498D01*
X335827D01*
X335237Y182088D01*
Y183269D01*
X335827Y183859D01*
X346063Y191338D02*
X345473Y191928D01*
Y193109D01*
X346063Y193699D01*
X348425D01*
X349015Y193109D01*
Y191928D01*
X348425Y191338D01*
X346063Y190157D02*
X345473Y189567D01*
Y188386D01*
X346063Y187796D01*
X346654D01*
X347244Y188386D01*
Y188976D01*
Y188386D01*
X347834Y187796D01*
X348425D01*
X349015Y188386D01*
Y189567D01*
X348425Y190157D01*
X346063Y186615D02*
X345473Y186025D01*
Y184844D01*
X346063Y184254D01*
X348425D01*
X349015Y184844D01*
Y186025D01*
X348425Y186615D01*
X346063D01*
X390550Y176378D02*
X391141Y176968D01*
X392321D01*
X392912Y176378D01*
Y174016D01*
X392321Y173426D01*
X391141D01*
X390550Y174016D01*
X387008Y173426D02*
X389370D01*
X387008Y175787D01*
Y176378D01*
X387599Y176968D01*
X388779D01*
X389370Y176378D01*
X385827Y174016D02*
X385237Y173426D01*
X384056D01*
X383466Y174016D01*
Y176378D01*
X384056Y176968D01*
X385237D01*
X385827Y176378D01*
Y175787D01*
X385237Y175197D01*
X383466D01*
X381496Y151180D02*
X380906Y151771D01*
Y152951D01*
X381496Y153542D01*
X383858D01*
X384448Y152951D01*
Y151771D01*
X383858Y151180D01*
X384448Y147638D02*
Y150000D01*
X382087Y147638D01*
X381496D01*
X380906Y148229D01*
Y149409D01*
X381496Y150000D01*
Y146458D02*
X380906Y145867D01*
Y144686D01*
X381496Y144096D01*
X382087D01*
X382677Y144686D01*
X383267Y144096D01*
X383858D01*
X384448Y144686D01*
Y145867D01*
X383858Y146458D01*
X383267D01*
X382677Y145867D01*
X382087Y146458D01*
X381496D01*
X382677Y145867D02*
Y144686D01*
X345373Y144094D02*
X345964Y144685D01*
X347144D01*
X347735Y144094D01*
Y141733D01*
X347144Y141142D01*
X345964D01*
X345373Y141733D01*
X344193Y141142D02*
X343012D01*
X343602D01*
Y144685D01*
X344193Y144094D01*
X339470Y141142D02*
Y144685D01*
X341241Y142913D01*
X338879D01*
X331988Y161811D02*
X332578Y162401D01*
X333759D01*
X334349Y161811D01*
Y159449D01*
X333759Y158859D01*
X332578D01*
X331988Y159449D01*
X330807Y158859D02*
X329626D01*
X330216D01*
Y162401D01*
X330807Y161811D01*
X327855D02*
X327265Y162401D01*
X326084D01*
X325494Y161811D01*
Y161220D01*
X326084Y160630D01*
X326674D01*
X326084D01*
X325494Y160040D01*
Y159449D01*
X326084Y158859D01*
X327265D01*
X327855Y159449D01*
X310630Y187598D02*
X310040Y188189D01*
Y189369D01*
X310630Y189960D01*
X312992D01*
X313582Y189369D01*
Y188189D01*
X312992Y187598D01*
Y186417D02*
X313582Y185827D01*
Y184646D01*
X312992Y184056D01*
X310630D01*
X310040Y184646D01*
Y185827D01*
X310630Y186417D01*
X311221D01*
X311811Y185827D01*
Y184056D01*
X366930Y136811D02*
X366339Y137401D01*
Y138582D01*
X366930Y139172D01*
X369291D01*
X369881Y138582D01*
Y137401D01*
X369291Y136811D01*
X366930Y135630D02*
X366339Y135040D01*
Y133859D01*
X366930Y133269D01*
X367520D01*
X368110Y133859D01*
X368701Y133269D01*
X369291D01*
X369881Y133859D01*
Y135040D01*
X369291Y135630D01*
X368701D01*
X368110Y135040D01*
X367520Y135630D01*
X366930D01*
X368110Y135040D02*
Y133859D01*
X351969Y144291D02*
X351378Y144881D01*
Y146062D01*
X351969Y146653D01*
X354330D01*
X354921Y146062D01*
Y144881D01*
X354330Y144291D01*
X354921Y141339D02*
X351378D01*
X353150Y143110D01*
Y140749D01*
X323229Y102165D02*
X322638Y102755D01*
Y103936D01*
X323229Y104527D01*
X325590D01*
X326181Y103936D01*
Y102755D01*
X325590Y102165D01*
X326181Y98623D02*
Y100984D01*
X323819Y98623D01*
X323229D01*
X322638Y99213D01*
Y100394D01*
X323229Y100984D01*
D60*
X260059Y139398D02*
X259567Y140251D01*
X258583D01*
X258091Y139398D01*
X258583Y138546D01*
X259567D01*
X260059Y139398D01*
M02*
