G04*
G04 #@! TF.GenerationSoftware,Altium Limited,Altium Designer,22.2.1 (43)*
G04*
G04 Layer_Color=8388736*
%FSLAX25Y25*%
%MOIN*%
G70*
G04*
G04 #@! TF.SameCoordinates,3A658960-9040-4E96-AE8A-DEED508C0D5D*
G04*
G04*
G04 #@! TF.FilePolarity,Negative*
G04*
G01*
G75*
%ADD28R,0.07874X0.04724*%
%ADD29R,0.03937X0.04724*%
G04:AMPARAMS|DCode=32|XSize=71.07mil|YSize=24.01mil|CornerRadius=12mil|HoleSize=0mil|Usage=FLASHONLY|Rotation=0.000|XOffset=0mil|YOffset=0mil|HoleType=Round|Shape=RoundedRectangle|*
%AMROUNDEDRECTD32*
21,1,0.07107,0.00000,0,0,0.0*
21,1,0.04706,0.02401,0,0,0.0*
1,1,0.02401,0.02353,0.00000*
1,1,0.02401,-0.02353,0.00000*
1,1,0.02401,-0.02353,0.00000*
1,1,0.02401,0.02353,0.00000*
%
%ADD32ROUNDEDRECTD32*%
%ADD33R,0.07107X0.02401*%
%ADD36R,0.07099X0.05131*%
%ADD37R,0.07100X0.05800*%
%ADD38R,0.04383X0.05603*%
%ADD39C,0.06706*%
%ADD40R,0.05800X0.07100*%
%ADD41R,0.22847X0.22847*%
%ADD42O,0.01784X0.04737*%
%ADD43O,0.04737X0.01784*%
%ADD44R,0.03950X0.03950*%
%ADD45R,0.20800X0.02800*%
G04:AMPARAMS|DCode=46|XSize=47.37mil|YSize=70.99mil|CornerRadius=5.97mil|HoleSize=0mil|Usage=FLASHONLY|Rotation=0.000|XOffset=0mil|YOffset=0mil|HoleType=Round|Shape=RoundedRectangle|*
%AMROUNDEDRECTD46*
21,1,0.04737,0.05906,0,0,0.0*
21,1,0.03543,0.07099,0,0,0.0*
1,1,0.01194,0.01772,-0.02953*
1,1,0.01194,-0.01772,-0.02953*
1,1,0.01194,-0.01772,0.02953*
1,1,0.01194,0.01772,0.02953*
%
%ADD46ROUNDEDRECTD46*%
G04:AMPARAMS|DCode=47|XSize=19.81mil|YSize=25.72mil|CornerRadius=5.95mil|HoleSize=0mil|Usage=FLASHONLY|Rotation=90.000|XOffset=0mil|YOffset=0mil|HoleType=Round|Shape=RoundedRectangle|*
%AMROUNDEDRECTD47*
21,1,0.01981,0.01382,0,0,90.0*
21,1,0.00791,0.02572,0,0,90.0*
1,1,0.01190,0.00691,0.00396*
1,1,0.01190,0.00691,-0.00396*
1,1,0.01190,-0.00691,-0.00396*
1,1,0.01190,-0.00691,0.00396*
%
%ADD47ROUNDEDRECTD47*%
%ADD48R,0.05131X0.07099*%
%ADD49R,0.08674X0.12611*%
%ADD50R,0.08674X0.09461*%
%ADD51O,0.08674X0.09461*%
%ADD52C,0.07874*%
%ADD53R,0.07874X0.07874*%
%ADD54O,0.08280X0.08674*%
%ADD55R,0.08280X0.08674*%
%ADD56C,0.08280*%
%ADD57C,0.05524*%
%ADD58C,0.02769*%
G36*
X460594Y158462D02*
X457584D01*
X457581Y158463D01*
X457260Y157767D01*
X456419Y156488D01*
X455343Y155398D01*
X454073Y154542D01*
X452661Y153951D01*
X451159Y153650D01*
X449628D01*
X448127Y153951D01*
X446714Y154542D01*
X445445Y155398D01*
X444369Y156488D01*
X443528Y157767D01*
X443206Y158463D01*
D01*
X443204Y158462D01*
X440194D01*
Y151162D01*
X460594D01*
Y158462D01*
D02*
G37*
G36*
Y164262D02*
X457584D01*
X457581Y164261D01*
X457260Y164957D01*
X456419Y166237D01*
X455343Y167326D01*
X454073Y168183D01*
X452661Y168773D01*
X451159Y169074D01*
X449628D01*
X448127Y168773D01*
X446714Y168183D01*
X445445Y167326D01*
X444369Y166237D01*
X443528Y164957D01*
X443206Y164261D01*
Y164261D01*
X443204Y164262D01*
X440194D01*
Y171562D01*
X460594D01*
Y164262D01*
D02*
G37*
D28*
X320866Y187402D02*
D03*
Y177953D02*
D03*
D29*
X321949Y171142D02*
D03*
Y161142D02*
D03*
X328445D02*
D03*
Y171142D02*
D03*
D32*
X450394Y145866D02*
D03*
Y142126D02*
D03*
Y138386D02*
D03*
X441335D02*
D03*
Y142126D02*
D03*
D33*
Y145866D02*
D03*
D36*
X463386Y199213D02*
D03*
Y212598D02*
D03*
X454331Y199213D02*
D03*
Y212598D02*
D03*
X404331Y209842D02*
D03*
Y196457D02*
D03*
X413386Y209842D02*
D03*
Y196457D02*
D03*
X422835Y167323D02*
D03*
Y180709D02*
D03*
X409842Y143307D02*
D03*
Y129921D02*
D03*
D37*
X444488Y200724D02*
D03*
Y208724D02*
D03*
X422835Y207150D02*
D03*
Y199150D02*
D03*
X432283Y169228D02*
D03*
Y177228D02*
D03*
X409842Y168047D02*
D03*
Y176047D02*
D03*
Y151512D02*
D03*
Y159512D02*
D03*
X348819Y188126D02*
D03*
Y196126D02*
D03*
X339764Y196063D02*
D03*
Y188063D02*
D03*
X330709Y196126D02*
D03*
Y188126D02*
D03*
X203150Y121984D02*
D03*
Y129984D02*
D03*
X211024Y176646D02*
D03*
Y184646D02*
D03*
X432283Y148756D02*
D03*
Y156756D02*
D03*
X419291Y140220D02*
D03*
Y132220D02*
D03*
X428740Y132220D02*
D03*
Y140220D02*
D03*
D38*
X457224Y179921D02*
D03*
X444350D02*
D03*
X452106Y103150D02*
D03*
X439232D02*
D03*
D39*
X397638Y181496D02*
D03*
Y170472D02*
D03*
X390158Y173228D02*
D03*
Y163779D02*
D03*
X397638Y160630D02*
D03*
X390158Y154724D02*
D03*
X397638Y149213D02*
D03*
X390158Y144488D02*
D03*
X373228Y135433D02*
D03*
X350000Y134252D02*
D03*
X340945Y143307D02*
D03*
X390158Y184252D02*
D03*
X377559Y202362D02*
D03*
X368898Y204724D02*
D03*
X374410Y194095D02*
D03*
D40*
X369354Y126772D02*
D03*
X361354D02*
D03*
X369354Y117323D02*
D03*
X361354D02*
D03*
X352693Y214173D02*
D03*
X360693D02*
D03*
X303480Y188189D02*
D03*
X311480D02*
D03*
X303480Y179528D02*
D03*
X311480D02*
D03*
X305449Y170472D02*
D03*
X313449D02*
D03*
X227102Y144095D02*
D03*
X235102D02*
D03*
X227102Y153150D02*
D03*
X235102D02*
D03*
X227039Y162598D02*
D03*
X235039D02*
D03*
X227102Y172441D02*
D03*
X235102D02*
D03*
X360693Y205118D02*
D03*
X352693D02*
D03*
X313386Y161811D02*
D03*
X305386D02*
D03*
X448819Y129527D02*
D03*
X440819D02*
D03*
D41*
X359055Y164173D02*
D03*
D42*
X348228Y177953D02*
D03*
X350197D02*
D03*
X352165D02*
D03*
X354134D02*
D03*
X356102D02*
D03*
X358071D02*
D03*
X360039D02*
D03*
X362008D02*
D03*
X363976D02*
D03*
X365945D02*
D03*
X367913D02*
D03*
X369882D02*
D03*
Y150394D02*
D03*
X367913D02*
D03*
X365945D02*
D03*
X363976D02*
D03*
X362008D02*
D03*
X360039D02*
D03*
X358071D02*
D03*
X356102D02*
D03*
X354134D02*
D03*
X352165D02*
D03*
X350197D02*
D03*
X348228D02*
D03*
D43*
X372835Y175000D02*
D03*
Y173031D02*
D03*
Y171063D02*
D03*
Y169095D02*
D03*
Y167126D02*
D03*
Y165157D02*
D03*
Y163189D02*
D03*
Y161221D02*
D03*
Y159252D02*
D03*
Y157283D02*
D03*
Y155315D02*
D03*
Y153347D02*
D03*
X345276D02*
D03*
Y155315D02*
D03*
Y157283D02*
D03*
Y159252D02*
D03*
Y161221D02*
D03*
Y163189D02*
D03*
Y165157D02*
D03*
Y167126D02*
D03*
Y169095D02*
D03*
Y171063D02*
D03*
Y173031D02*
D03*
Y175000D02*
D03*
D44*
X317717Y196457D02*
D03*
X324016D02*
D03*
D45*
X450394Y152362D02*
D03*
Y170362D02*
D03*
D46*
X433858Y202756D02*
D03*
D47*
X437697Y205315D02*
D03*
Y202756D02*
D03*
Y200197D02*
D03*
X430020D02*
D03*
Y202756D02*
D03*
Y205315D02*
D03*
D48*
X451968Y120472D02*
D03*
X438583D02*
D03*
X451968Y111811D02*
D03*
X438583D02*
D03*
D49*
X291988Y130118D02*
D03*
X301988D02*
D03*
X311988D02*
D03*
X251988D02*
D03*
X261988D02*
D03*
X271988D02*
D03*
X281988D02*
D03*
X291988Y90748D02*
D03*
X301988D02*
D03*
X311988D02*
D03*
X251988D02*
D03*
X261988D02*
D03*
X271988D02*
D03*
X281988D02*
D03*
D50*
X450394Y93701D02*
D03*
D51*
X440394D02*
D03*
D52*
X404921Y97638D02*
D03*
X387205D02*
D03*
Y123228D02*
D03*
D53*
X404921D02*
D03*
D54*
X376299Y225197D02*
D03*
X386299D02*
D03*
X396299D02*
D03*
D55*
X406299D02*
D03*
D56*
X211417Y136535D02*
D03*
Y146535D02*
D03*
Y156535D02*
D03*
Y166535D02*
D03*
Y86535D02*
D03*
Y96535D02*
D03*
Y106535D02*
D03*
Y116535D02*
D03*
D57*
X274410Y173228D02*
D03*
X328740Y172835D02*
D03*
X298031Y172441D02*
D03*
X292126Y126772D02*
D03*
X309055Y118504D02*
D03*
X284016Y102362D02*
D03*
X301575Y137402D02*
D03*
X256693Y146850D02*
D03*
X429134Y181496D02*
D03*
X421747Y157383D02*
D03*
X377067Y179528D02*
D03*
X279921Y93701D02*
D03*
X294094Y94488D02*
D03*
X286221Y161417D02*
D03*
X242913Y155512D02*
D03*
X274410Y137795D02*
D03*
X309449Y139764D02*
D03*
X349213Y126378D02*
D03*
X339764Y130709D02*
D03*
X331102Y136614D02*
D03*
X340551Y116929D02*
D03*
X329528Y109449D02*
D03*
X418504Y149213D02*
D03*
X434252Y140157D02*
D03*
X352362Y221260D02*
D03*
X350000Y201776D02*
D03*
X203543Y184646D02*
D03*
X418504Y207681D02*
D03*
X448819Y212598D02*
D03*
X420079Y195870D02*
D03*
X433398Y124736D02*
D03*
X367704Y192702D02*
D03*
X368110Y187008D02*
D03*
X326772Y152756D02*
D03*
X322441Y157480D02*
D03*
X332563Y150995D02*
D03*
X337000Y159358D02*
D03*
X359941Y135827D02*
D03*
X397638Y210236D02*
D03*
X375654Y144819D02*
D03*
X339764Y201575D02*
D03*
X355512Y117717D02*
D03*
X368898Y143701D02*
D03*
X409449Y163779D02*
D03*
X311988Y130532D02*
D03*
X251575Y130709D02*
D03*
X261811Y93701D02*
D03*
X272047Y94095D02*
D03*
X312598Y90945D02*
D03*
X268898Y104724D02*
D03*
X344488Y180709D02*
D03*
D58*
X367717Y155512D02*
D03*
X363386D02*
D03*
X359055D02*
D03*
X354724D02*
D03*
X350394D02*
D03*
X367717Y159843D02*
D03*
X363386D02*
D03*
X359055D02*
D03*
X354724D02*
D03*
X350394D02*
D03*
X367717Y164173D02*
D03*
X363386D02*
D03*
X359055D02*
D03*
X354724D02*
D03*
X350394D02*
D03*
X367717Y168504D02*
D03*
X363386D02*
D03*
X359055D02*
D03*
X354724D02*
D03*
X350394D02*
D03*
X367717Y172835D02*
D03*
X363386D02*
D03*
X359055D02*
D03*
X354724D02*
D03*
X350394D02*
D03*
X433858Y200591D02*
D03*
Y204921D02*
D03*
M02*
