G04*
G04 #@! TF.GenerationSoftware,Altium Limited,Altium Designer,22.2.1 (43)*
G04*
G04 Layer_Color=16711935*
%FSLAX25Y25*%
%MOIN*%
G70*
G04*
G04 #@! TF.SameCoordinates,3A658960-9040-4E96-AE8A-DEED508C0D5D*
G04*
G04*
G04 #@! TF.FilePolarity,Negative*
G04*
G01*
G75*
%ADD37R,0.07100X0.05800*%
%ADD40R,0.05800X0.07100*%
%ADD50R,0.08674X0.09461*%
%ADD51O,0.08674X0.09461*%
%ADD52C,0.07874*%
%ADD53R,0.07874X0.07874*%
%ADD54O,0.08280X0.08674*%
%ADD55R,0.08280X0.08674*%
%ADD56C,0.08280*%
%ADD57C,0.05524*%
%ADD58C,0.02769*%
%ADD73R,0.02389X0.10228*%
G04:AMPARAMS|DCode=74|XSize=102.28mil|YSize=23.89mil|CornerRadius=11.95mil|HoleSize=0mil|Usage=FLASHONLY|Rotation=270.000|XOffset=0mil|YOffset=0mil|HoleType=Round|Shape=RoundedRectangle|*
%AMROUNDEDRECTD74*
21,1,0.10228,0.00000,0,0,270.0*
21,1,0.07839,0.02389,0,0,270.0*
1,1,0.02389,0.00000,-0.03919*
1,1,0.02389,0.00000,0.03919*
1,1,0.02389,0.00000,0.03919*
1,1,0.02389,0.00000,-0.03919*
%
%ADD74ROUNDEDRECTD74*%
D37*
X311811Y178347D02*
D03*
Y170346D02*
D03*
X321260Y170410D02*
D03*
Y178410D02*
D03*
X346457Y179590D02*
D03*
Y171590D02*
D03*
X337402Y168047D02*
D03*
Y176047D02*
D03*
X359842Y144882D02*
D03*
Y152882D02*
D03*
X368110Y144819D02*
D03*
Y152819D02*
D03*
X375984Y144819D02*
D03*
Y152819D02*
D03*
X333858Y117386D02*
D03*
Y109386D02*
D03*
X324803Y117386D02*
D03*
Y109386D02*
D03*
D40*
X354661Y179528D02*
D03*
X362661D02*
D03*
X378410Y175197D02*
D03*
X370409D02*
D03*
X339307Y159843D02*
D03*
X347307D02*
D03*
X339307Y150787D02*
D03*
X347307D02*
D03*
X284583Y84646D02*
D03*
X292583D02*
D03*
D50*
X450394Y93701D02*
D03*
D51*
X440394D02*
D03*
D52*
X404921Y97638D02*
D03*
X387205D02*
D03*
Y123228D02*
D03*
D53*
X404921D02*
D03*
D54*
X376299Y225197D02*
D03*
X386299D02*
D03*
X396299D02*
D03*
D55*
X406299D02*
D03*
D56*
X211417Y136535D02*
D03*
Y146535D02*
D03*
Y156535D02*
D03*
Y166535D02*
D03*
Y86535D02*
D03*
Y96535D02*
D03*
Y106535D02*
D03*
Y116535D02*
D03*
D57*
X274410Y173228D02*
D03*
X328740Y172835D02*
D03*
X298031Y172441D02*
D03*
X292126Y126772D02*
D03*
X309055Y118504D02*
D03*
X284016Y102362D02*
D03*
X301575Y137402D02*
D03*
X256693Y146850D02*
D03*
X429134Y181496D02*
D03*
X421747Y157383D02*
D03*
X377067Y179528D02*
D03*
X279921Y93701D02*
D03*
X294094Y94488D02*
D03*
X286221Y161417D02*
D03*
X242913Y155512D02*
D03*
X274410Y137795D02*
D03*
X309449Y139764D02*
D03*
X349213Y126378D02*
D03*
X339764Y130709D02*
D03*
X331102Y136614D02*
D03*
X340551Y116929D02*
D03*
X329528Y109449D02*
D03*
X418504Y149213D02*
D03*
X434252Y140157D02*
D03*
X352362Y221260D02*
D03*
X350000Y201776D02*
D03*
X203543Y184646D02*
D03*
X418504Y207681D02*
D03*
X448819Y212598D02*
D03*
X420079Y195870D02*
D03*
X433398Y124736D02*
D03*
X367704Y192702D02*
D03*
X368110Y187008D02*
D03*
X326772Y152756D02*
D03*
X322441Y157480D02*
D03*
X332563Y150995D02*
D03*
X337000Y159358D02*
D03*
X359941Y135827D02*
D03*
X397638Y210236D02*
D03*
X375654Y144819D02*
D03*
X339764Y201575D02*
D03*
X355512Y117717D02*
D03*
X368898Y143701D02*
D03*
X409449Y163779D02*
D03*
X311988Y130532D02*
D03*
X251575Y130709D02*
D03*
X261811Y93701D02*
D03*
X272047Y94095D02*
D03*
X312598Y90945D02*
D03*
X268898Y104724D02*
D03*
X344488Y180709D02*
D03*
D58*
X367717Y155512D02*
D03*
X363386D02*
D03*
X359055D02*
D03*
X354724D02*
D03*
X350394D02*
D03*
X367717Y159843D02*
D03*
X363386D02*
D03*
X359055D02*
D03*
X354724D02*
D03*
X350394D02*
D03*
X367717Y164173D02*
D03*
X363386D02*
D03*
X359055D02*
D03*
X354724D02*
D03*
X350394D02*
D03*
X367717Y168504D02*
D03*
X363386D02*
D03*
X359055D02*
D03*
X354724D02*
D03*
X350394D02*
D03*
X367717Y172835D02*
D03*
X363386D02*
D03*
X359055D02*
D03*
X354724D02*
D03*
X350394D02*
D03*
X433858Y200591D02*
D03*
Y204921D02*
D03*
D73*
X258937Y149433D02*
D03*
D74*
X263937D02*
D03*
X268937D02*
D03*
X273937D02*
D03*
X278937D02*
D03*
X283937D02*
D03*
X288937D02*
D03*
X293937D02*
D03*
X298937D02*
D03*
X303937D02*
D03*
X308937D02*
D03*
X313937D02*
D03*
Y113386D02*
D03*
X308937D02*
D03*
X303937D02*
D03*
X298937D02*
D03*
X293937D02*
D03*
X288937D02*
D03*
X283937D02*
D03*
X278937D02*
D03*
X273937D02*
D03*
X268937D02*
D03*
X263937D02*
D03*
X258937D02*
D03*
M02*
